<svg width="174" height="34" viewBox="0 0 174 34" fill="none" xmlns="http://www.w3.org/2000/svg">
<path d="M8.21869 26.503C10.5172 26.503 12.4214 25.993 13.9298 24.973C15.4383 23.9516 16.1932 22.4669 16.1932 20.519C16.0768 17.8911 14.1389 15.9205 10.3783 14.6072L8.35761 13.7615C7.917 13.6198 7.60268 13.481 7.41745 13.3393C7.33185 13.2809 7.26176 13.2022 7.21332 13.1101C7.16488 13.0179 7.13957 12.9152 7.13961 12.8109C7.13961 12.2244 7.52269 11.9326 8.28885 11.9326C9.24024 11.9326 9.94747 12.4242 10.4119 13.4102L15.6011 11.9312C14.348 8.78617 11.933 7.21508 8.35761 7.21508C6.2219 7.21508 4.44542 7.77892 3.02956 8.90517C1.61371 10.03 0.905081 11.4977 0.905081 13.3025C0.905081 13.8663 0.986468 14.3877 1.14924 14.8693C1.31202 15.351 1.55618 15.7732 1.88032 16.1358C2.20587 16.4999 2.51879 16.8158 2.82048 17.0864C3.12218 17.3556 3.50526 17.6092 3.97113 17.8429C4.43419 18.0781 4.78781 18.2481 5.03197 18.3529C5.27613 18.4592 5.60729 18.5824 6.02405 18.7227L6.61621 18.9352L8.70702 19.7087C9.21639 19.8971 9.54895 20.0543 9.6991 20.1832C9.77246 20.2454 9.83081 20.3237 9.86972 20.4121C9.90862 20.5004 9.92705 20.5966 9.92361 20.6932C9.92361 21.3038 9.35671 21.6098 8.21869 21.6098C6.54745 21.6098 5.54835 20.859 5.22421 19.3573L0 20.5544C0.649693 24.5211 3.39019 26.5044 8.21869 26.5044V26.503ZM24.5466 26.503C26.8451 26.503 28.5388 25.6105 29.6305 23.8283V26.1162H36.8038V7.60183H29.6305V17.7395C29.6305 19.8277 28.9219 20.8703 27.506 20.8703C26.0663 20.8703 25.3465 19.8277 25.3465 17.7395V7.60183H18.1732V18.4436C18.1732 23.817 20.2977 26.5044 24.5466 26.5044V26.503ZM47.1428 26.1162V15.98C47.1428 13.8904 47.85 12.8463 49.2659 12.8463C50.7056 12.8463 51.4268 13.8904 51.4268 15.98V26.1162H58.5987V15.2759C58.5987 9.9025 56.4756 7.21508 52.2267 7.21508C49.9282 7.21508 48.2331 8.10758 47.1428 9.88975V7.60183H39.9681V26.1162H47.1428V26.1162ZM68.7286 26.1162V15.98C68.7286 13.8904 69.4358 12.8463 70.8531 12.8463C72.2914 12.8463 73.0112 13.8904 73.0112 15.98V26.1162H80.1859V15.2759C80.1859 9.9025 78.0614 7.21508 73.8125 7.21508C71.514 7.21508 69.8189 8.10758 68.7286 9.88975V7.60183H61.5539V26.1162H68.7286V26.1162ZM91.1507 34L102.782 7.60183H95.2931L91.7401 17.0708L88.5716 7.60183H80.736L88.3625 24.3213L84.115 34H91.1507ZM110.333 26.503C112.631 26.503 114.535 25.993 116.044 24.973C117.554 23.9516 118.309 22.4669 118.309 20.519C118.192 17.8911 116.253 15.9205 112.492 14.6072L110.472 13.7615C110.031 13.6198 109.718 13.481 109.532 13.3393C109.446 13.2809 109.376 13.2022 109.327 13.1101C109.279 13.0179 109.254 12.9152 109.254 12.8109C109.254 12.2244 109.637 11.9326 110.403 11.9326C111.354 11.9326 112.063 12.4242 112.527 13.4102L117.717 11.9312C116.462 8.78617 114.049 7.21508 110.473 7.21508C108.337 7.21508 106.561 7.77892 105.145 8.90517C103.728 10.0314 103.021 11.4977 103.021 13.3039C103.021 13.8677 103.102 14.3891 103.263 14.8707C103.426 15.3524 103.67 15.7746 103.996 16.1372C104.32 16.5013 104.634 16.8172 104.936 17.0878C105.238 17.357 105.621 17.6106 106.085 17.8443C106.548 18.0795 106.903 18.2495 107.148 18.3543C107.39 18.4606 107.723 18.5838 108.14 18.7241L108.732 18.9366L110.821 19.7101C111.332 19.8985 111.663 20.0557 111.813 20.1847C111.887 20.2467 111.945 20.3249 111.985 20.4133C112.024 20.5017 112.042 20.5979 112.039 20.6947C112.039 21.3052 111.471 21.6112 110.333 21.6112C108.663 21.6112 107.664 20.8604 107.338 19.3587L102.114 20.5544C102.765 24.5211 105.504 26.5044 110.333 26.5044V26.503ZM124.084 6.47558C125.361 6.47558 126.348 6.171 127.045 5.56042C127.74 4.95125 128.089 4.17633 128.089 3.23708C128.089 2.27658 127.752 1.49458 127.079 0.898167C126.405 0.2975 125.408 0 124.084 0C122.761 0 121.762 0.298917 121.089 0.898167C120.415 1.496 120.078 2.27658 120.078 3.2385C120.078 4.17633 120.428 4.95125 121.124 5.56183C121.821 6.171 122.808 6.47558 124.084 6.47558V6.47558ZM127.671 26.1162V7.60183H120.495V26.1162H127.67H127.671ZM138.532 26.503C140.969 26.503 142.709 25.6105 143.755 23.8283V26.1162H150.928V0.668667H143.755V9.92517C142.709 8.11892 140.969 7.21508 138.531 7.21508C136.071 7.21508 134.021 8.12458 132.385 9.94358C130.748 11.7612 129.929 14.0661 129.929 16.8597C129.929 19.6506 130.748 21.9569 132.385 23.7759C134.021 25.5935 136.071 26.503 138.531 26.503H138.532ZM140.483 20.978C139.46 20.978 138.641 20.5898 138.027 19.8163C137.411 19.0414 137.104 18.0554 137.104 16.8597C137.104 15.6627 137.405 14.6781 138.009 13.9032C138.636 13.1282 139.46 12.7415 140.481 12.7415C141.503 12.7415 142.321 13.1282 142.937 13.9032C143.551 14.6767 143.859 15.6627 143.859 16.8597C143.859 18.0554 143.551 19.0414 142.937 19.8163C142.321 20.5898 141.503 20.978 140.481 20.978H140.483ZM163.914 26.503C167.558 26.503 170.402 25.4348 172.445 23.3013L169.484 19.2879C168.022 20.485 166.373 21.0828 164.539 21.0828C163.147 21.0828 162.015 20.7655 161.144 20.1337C160.274 19.499 159.839 18.8884 159.839 18.3019H173.315C173.432 17.8797 173.489 17.3287 173.489 16.6487C173.489 13.7388 172.543 11.4396 170.652 9.7495C168.759 8.05942 166.34 7.21508 163.39 7.21508C160.233 7.21508 157.738 8.16567 155.904 10.0668C154.07 11.9666 153.152 14.2545 153.152 16.9292C153.152 19.6747 154.12 21.9569 156.06 23.7759C157.999 25.5935 160.616 26.503 163.914 26.503V26.503ZM167.012 14.9586H159.839C159.885 14.0902 160.257 13.4286 160.953 12.9696C161.649 12.512 162.474 12.2839 163.425 12.2839C164.377 12.2839 165.202 12.5177 165.898 12.988C166.595 13.4569 166.966 14.1142 167.012 14.9586Z" fill="#25564B"/>
</svg>
